/* XPM */
static char *_8cedcb8dc644bba90fdcbbf2cf5d733yYXFMjJIG6Hq4bbX[] = {
/* columns rows colors chars-per-pixel */
"45 40 220 2 ",
"   c None",
".  c #3C0F01",
"X  c #3A1A05",
"o  c #333211",
"O  c #4F0F00",
"+  c #491100",
"@  c #541200",
"#  c #5B1400",
"$  c #671B01",
"%  c #721D00",
"&  c #7A1E00",
"*  c #6A2508",
"=  c #7C2100",
"-  c #792908",
";  c #7A340F",
":  c #2F4E1E",
">  c #1B7036",
",  c #2F6B2E",
"<  c #265A28",
"1  c #62561E",
"2  c #5B7A18",
"3  c #73710E",
"4  c #43722C",
"5  c #711D5E",
"6  c #7B1F5E",
"7  c #754A75",
"8  c #891F00",
"9  c #BA0C0E",
"0  c #B70D16",
"q  c #BE1116",
"w  c #AD1D01",
"e  c #852400",
"r  c #882A03",
"t  c #972200",
"y  c #8D3200",
"u  c #8D3A06",
"i  c #933903",
"p  c #853911",
"a  c #A22300",
"s  c #B32000",
"d  c #B00C29",
"f  c #9C0D2F",
"g  c #CE0E0B",
"h  c #C30E0C",
"j  c #C81319",
"k  c #CF1311",
"l  c #D42C01",
"z  c #C91728",
"x  c #D51C2C",
"c  c #D71B27",
"v  c #CF1A3B",
"b  c #D21D31",
"n  c #D12037",
"m  c #984704",
"M  c #894418",
"N  c #964B17",
"B  c #9A5817",
"V  c #96530C",
"C  c #A64800",
"Z  c #A65A06",
"A  c #AD5C0C",
"S  c #9F6116",
"D  c #906216",
"F  c #A76507",
"G  c #B36A02",
"H  c #AD7404",
"J  c #B47802",
"K  c #A36619",
"L  c #B17911",
"P  c #975B26",
"I  c #9B672C",
"U  c #9A6D33",
"Y  c #A67727",
"T  c #A97732",
"R  c #CC4E01",
"E  c #D76C01",
"W  c #C76803",
"Q  c #900F4A",
"!  c #AD1550",
"~  c #8F0671",
"^  c #B81A63",
"/  c #B51879",
"(  c #8E2065",
")  c #84345D",
"_  c #C7174A",
"`  c #C51E54",
"'  c #C71E66",
"]  c #69972E",
"[  c #5BCD3D",
"{  c #19994A",
"}  c #1B9652",
"|  c #17AE5F",
" . c #34B055",
".. c #17B869",
"X. c #0CBD76",
"o. c #13B36C",
"O. c #22AB67",
"+. c #458E49",
"@. c #72AC58",
"#. c #0DC47D",
"$. c #17C577",
"%. c #1CC56E",
"&. c #27C76F",
"*. c #31C95E",
"=. c #4FC950",
"-. c #7AC565",
";. c #94900B",
":. c #B98702",
">. c #BF9902",
",. c #BC921A",
"<. c #B08610",
"1. c #B7AF0E",
"2. c #B68B26",
"3. c #BB9827",
"4. c #B69836",
"5. c #A78536",
"6. c #8AAF30",
"7. c #B3A92C",
"8. c #C58504",
"9. c #D88900",
"0. c #CA9C00",
"q. c #C79803",
"w. c #D59300",
"e. c #C19117",
"r. c #CBAC01",
"t. c #C9A500",
"y. c #D5A600",
"u. c #CBB501",
"i. c #D3B401",
"p. c #D6BC00",
"a. c #D4B708",
"s. c #CAAD15",
"d. c #C69325",
"f. c #C2A62A",
"g. c #CCB826",
"h. c #C1A937",
"j. c #CBB831",
"k. c #9ACF1D",
"l. c #ACC916",
"z. c #B2C11A",
"x. c #93CE22",
"c. c #B7CB26",
"v. c #D5C401",
"b. c #D7CE01",
"n. c #D9CB00",
"m. c #D7C303",
"M. c #D6D301",
"N. c #D9D302",
"B. c #D8D30B",
"V. c #D8D416",
"C. c #D0C611",
"Z. c #D8D437",
"A. c #D5CC2C",
"S. c #B28F46",
"D. c #95B14E",
"F. c #BBA353",
"G. c #CDBF5C",
"H. c #C4B150",
"J. c #C9BA62",
"K. c #BDC367",
"L. c #9BCF64",
"P. c #D3CC49",
"I. c #D1C66C",
"U. c #D9D566",
"Y. c #D9D576",
"T. c #CCC86D",
"R. c #300EB0",
"E. c #2C2BA8",
"W. c #1125BA",
"Q. c #750C85",
"!. c #7004B1",
"~. c #5002A3",
"^. c #1075B8",
"/. c #2D49A1",
"(. c #476987",
"). c #1809C6",
"_. c #0A1CC6",
"`. c #0F12C5",
"'. c #1211C5",
"]. c #2501C7",
"[. c #3B00C5",
"{. c #0433C5",
"}. c #023DC6",
"|. c #0329C7",
" X c #4300C5",
".X c #5800C4",
"XX c #6D02C4",
"oX c #0244C5",
"OX c #0355C4",
"+X c #006AC6",
"@X c #0064C6",
"#X c #0078C5",
"$X c #870C8D",
"%X c #950CB2",
"&X c #A510A0",
"*X c #8D0AC4",
"=X c #09BE81",
"-X c #1193BA",
";X c #2390AD",
":X c #0AB8BD",
">X c #14A2B9",
",X c #0BC58B",
"<X c #0AC488",
"1X c #06C69B",
"2X c #07C899",
"3X c #11C683",
"4X c #04C6A4",
"5X c #02C6AD",
"6X c #05C8A5",
"7X c #02C5B3",
"8X c #01C4BC",
"9X c #008BC5",
"0X c #0086C5",
"qX c #009BC5",
"wX c #0095C5",
"eX c #00A4C5",
"rX c #00ACC5",
"tX c #01B4C5",
"yX c #00BCC4",
"uX c #00C1C2",
/* pixels */
"                                                                                          ",
"                                                                                          ",
"                                  q.2.<.J J :.u.v.M.                                      ",
"                            i.8.Z i m m u y - r m :.u.M.                                  ",
"                          p.q.e.e.f.3.3.3.7.,.L m r y F r.N.                              ",
"                      N.n.C.f.Y S Z F F F B D Y 7.,.m e y J n.                            ",
"                    N.n.j.Y Z :.u.v.v.v.v.u.t.:.m I h.L y 8 F a.                          ",
"                  N.V.h.B J p.m.r.H 3 2 2 ] ;.1.r.F p 4.s.m N G p.                        ",
"                  V.4.V 0.b.i.;.4 { | X.=XX... .] 1.A - 5.g.G T 8.n.                      ",
"                V.h.N 0.b.q.3 { X.4X5X8X8X7X6X6X,X*.6.V % 5.g.e.f.y.                      ",
"              Z.P.N W M.9.D | 2X8XuXyXtX>XtXyXuX8X1X%.] - $ 4.C.s.a.n.                    ",
"              U.T C v.i.A O.6XuXtXqX9X^.7 ^.9XeXtXuX4X#.4 O p G.a.i.n.N.                  ",
"              J.p W m.W +.4XuXrX0XoX|.E._ R.{.OXwXtXuX5X..: @ U Z.m.n.N.                  ",
"            Y.S.t t.9.P X.8XrX#X{.).].Q.x 6 ].'.oX#XtXuX2X} X * H.V.N.N.                  ",
"            I.M t E R +.5XyX9X{.]. XXX^ c ^ .X[.).{.9XyX7X3X< + U P.B.N.N.                ",
"            F.- a l i 3X8XeXOX). XXX&X_ c _ %XXX[.'.OXrXuX6X} + ; J.Z.B.V.                ",
"            U % 8 a 1 ,X:X(.5 5 ~ / ^ v x x / &X!.R.W.^.tX5X..o $ S.U.P.U.                ",
"            * & & 8 4 2XtX^.Q 9 h 9 j n x j q d d f f ) ;X8X#.< # P T.Y.Y.                ",
"          + $ = & & , 6XtX+XR.Q q 9 9 b z 9 9 9 h g Q /.rX8X,X< @ - H.Y.Y.                ",
"            $ % r p +.5XtX@X)..X! q q z h g g g g ~ R.{.qXuX2X> @ % U S.5.I               ",
"            $ r S.I.L.=XyX#X)..X%X^ b j c c k b &X.X].oXqXuX1X> @ % = = = =               ",
"            # M I.Y.L.1X8X0X_. X%X` z g j x x ' %X.X).OXrX8X,X< # % = = e                 ",
"            @ u I.Z.c.$.8XqXoX[.!.n k g j x x _ !. X'.+XtX7X#., * % = = =                 ",
"            + ; G.V.N.=.5XyX#X'.~ c h _ / d x v !.].{.0XyX7XX.D.U % = = =                 ",
"            . $ 4.V.N.x.3X8XeXOX! z ~ XX*X$Xd b Q._.+XrXuX1X .K.U % e t t                 ",
"              @ I A.p.n.=.4X:X^.) R.].[. X[.~.! ( OXqXyX7XX.@.T.p 8 w h s                 ",
"              . - H.a.s.l.&.7X:X-X+X{._.'.`._.E.7 -XtX8X=X .K.F.= a l l                   ",
"                $ I g.e.q.x.$.5XuXrXqX#X+X+X#X9X>XtX8X1X| D.Y.I 8 W E l                   ",
"                $ - 4.e.m >.k.&.4X8XyXyXtXtXtXyXuX5X2X .6.Z.F.r R p.9.l                   ",
"                  u M f.F y :.l.=.3X1X5X8X8X7X5X1X%. .6.B.H.M C p.p.E                     ",
"                    Z N f.F r H u.k.[ *.$.$.&.&.=.6.C.N.A.P C p.n.w.                      ",
"                      G V 4.<.u u H t.1.c.l.1.C.C.N.V.j.P C i.n.y.E                       ",
"                        q.Z Y 3.L m r y m m Z E m.A.2.N G m.v.w.E                         ",
"                          u.:.S Y 2.3.,.,.,.f.f.2.P Z 0.v.p.w.E                           ",
"                            v.v.>.H F K K K S F J t.v.v.i.w.                              ",
"                                b.M.v.i.r.i.i.p.v.p.i.y.                                  ",
"                                        0.0.0.q.q.                                        ",
"                                                                                          ",
"                                                                                          ",
"                                                                                          "
};
