/* XPM */
static char *b866292366854c67ad9ec6a1cb0acf5dIlwV2OCFW4iHgjiP[] = {
/* columns rows colors chars-per-pixel */
"46 50 146 2 ",
"   c None",
".  c #050505",
"X  c #080707",
"o  c #0C0C0C",
"O  c #100F0F",
"+  c #141313",
"@  c #181717",
"#  c #1C1B1B",
"$  c #201F1F",
"%  c #252323",
"&  c #282626",
"*  c #2D2A2A",
"=  c #312E2E",
"-  c #36302F",
";  c #353232",
":  c #393635",
">  c #3D3837",
",  c #3D3A3A",
"<  c #453629",
"1  c #46382C",
"2  c #4C3C2A",
"3  c #463730",
"4  c #473931",
"5  c #4D3E32",
"6  c #413D3D",
"7  c #4F402E",
"8  c #54442B",
"9  c #58472B",
"0  c #5A492E",
"q  c #4F4134",
"w  c #46403F",
"e  c #4D4038",
"r  c #534433",
"t  c #554530",
"y  c #544531",
"u  c #564733",
"i  c #504136",
"p  c #534535",
"a  c #554735",
"s  c #524433",
"d  c #564837",
"f  c #594A30",
"g  c #594A31",
"h  c #5A4A30",
"j  c #5B4B30",
"k  c #5A4B32",
"l  c #5B4B33",
"z  c #5B4C32",
"x  c #5C4C32",
"c  c #5C4D32",
"v  c #5C4C33",
"b  c #5C4D33",
"n  c #5D4D33",
"m  c #5D4E33",
"M  c #594B34",
"N  c #594B37",
"B  c #5B4C35",
"V  c #5C4D35",
"C  c #5D4E34",
"Z  c #5C4E35",
"A  c #5E4E34",
"S  c #5D4E36",
"D  c #5C4E37",
"F  c #5D4E37",
"G  c #5D4F37",
"H  c #5C4D33",
"J  c #524439",
"K  c #514338",
"L  c #5C4E38",
"P  c #5D4E38",
"I  c #5D4F39",
"U  c #5E4F39",
"Y  c #5D4F3A",
"T  c #5E4F3A",
"R  c #5D4F3C",
"E  c #5A4D39",
"W  c #5E5036",
"Q  c #5F5036",
"!  c #5F5037",
"~  c #5F5137",
"^  c #5F5037",
"/  c #5E503A",
"(  c #5E513A",
")  c #5F513A",
"_  c #5E503B",
"`  c #5F513B",
"'  c #5F503C",
"]  c #5F513C",
"[  c #5E513D",
"{  c #5F513D",
"}  c #5E513A",
"|  c #605138",
" . c #605139",
".. c #605239",
"X. c #60523A",
"o. c #60533A",
"O. c #60533B",
"+. c #61533B",
"@. c #60533E",
"#. c #60533F",
"$. c #61533F",
"%. c #61543C",
"&. c #62543C",
"*. c #62543D",
"=. c #62553D",
"-. c #61543E",
";. c #63553E",
":. c #61533B",
">. c #434040",
",. c #444040",
"<. c #444141",
"1. c #454141",
"2. c #464141",
"3. c #464241",
"4. c #454242",
"5. c #464242",
"6. c #474242",
"7. c #464343",
"8. c #474343",
"9. c #474444",
"0. c #454141",
"q. c #484241",
"w. c #484343",
"e. c #4A4342",
"r. c #4A4443",
"t. c #494444",
"y. c #484445",
"u. c #484545",
"i. c #4B4544",
"p. c #4A4545",
"a. c #4A4646",
"s. c #4B4646",
"d. c #4A4747",
"f. c #4C4746",
"g. c #4C4747",
"h. c #4A4545",
"j. c #4B4848",
"k. c #4C4848",
"l. c #4D4949",
"z. c #4D4949",
"x. c #625541",
"c. c #625542",
"v. c #645740",
"b. c #645741",
"n. c #655842",
"m. c #655842",
/* pixels */
"      2 2 2 2 2 2 2 2 2 < 2 2 2 2 2 2 8 2 2 < 2 2 2 8 2 2 8 2 2 2 < 2 2 2 2 2 2 2 2 2       ",
"      9 9 9 9 9 8 9 9 2 2 9 9 9 9 9 8 9 9 9 1 8 8 9 9 9 8 8 9 9 7 2 8 8 9 9 9 9 9 9 8       ",
"      9 0 0 0 0 0 0 j 7 8 9 0 0 0 0 9 9 j j 1 8 9 9 0 9 0 9 9 9 8 1 0 0 0 0 0 0 9 0 9       ",
"      g A c c c m D j 2 2 m m m m c c 0 j g 2 t m m W m m m m j s 2 m m m m m m N B 9       ",
"      B &.&...| D | m 2 s | *.X.....~ ~ D g 1 d ) *.) ) | ~ ~ j q 5 ~ o.| X.~ ~ ~ D r       ",
"      D &.;.&.&.X.$.' q s I $.c.X.| I I ' ' 5 J ) c.*.' ~ ~ ) ' K 5 I $.c.o.X.X.X.*.B       ",
"      s 7 s 8 s s 5 e 5 4 e e e q e e e e e 4 5 e e e e e e e e 5 5 e e 5 s 7 q s 8 q       ",
"        2 2 8 2 2 4 y.g.g.l.i.d.i.i.8.2.2.2.2.2.2.2.2.9.i.i.i.j.g.g.g.y.2 2 8 2 2 2         ",
"        9 9 9 9 9 5 i.l.j.l.j.d.9.7.4.<.>.>.>.>.w >.4.4.9.d.j.j.l.l.l.i.q 9 9 9 9 8         ",
"        0 0 g 0 t s i.l.j.d.9.9.<.>.>.6 , 6 6 , , , , >.>.>.9.9.j.j.l.i.q 9 0 0 0 0         ",
"        g m m m v q i.l.d.9.4.>.6 6 , , , , , , , , , , , >.>.>.9.i.z.t.q j D m D j         ",
"        ~ o.) ~ D q t.i.9.>.>.6 , , , , : : : , > : , , , , , >.2.2.i.t.q ) ~ X.o.D         ",
"        I v.] ` X.J e.e.2.6 6 , , , ; ; : ; ; ; ; : : : > , , , >.2.9.e.K ) o.o.m.)         ",
"      < 2 5 5 2 5 4 6 2.6 6 , > : ; ; ; = = = = = = ; ; : , ; , , >.>.2.5 q 7 2 5 2 <       ",
"2 8 8 8 8 2 8 8 8 4 6 6 , , > ; ; = = = = * = * * = = = ; ; ; > , , 2.6 1 7 8 2 2 8 8 2 7 2 ",
"2 9 9 9 9 9 8 9 9 5 6 6 , : ; ; ; = = * * * & & * * * * = = ; : : , , 6 2 0 9 9 9 0 9 0 9 7 ",
"8 0 m 0 v 0 0 0 0 5 6 , > ; = = = * * & & & & % & & & * * * = ; : : , 6 2 g 0 0 v v 0 0 0 8 ",
"s A m D A A D ! v 5 , : : ; = = * & & & % % % % % % % & * * = = ; : , , 5 B m D m m m ! m r ",
"r X.;.o.X.| ! ! I 5 > : ; ; = * & & % % % $ $ $ $ $ % % & & * = = ; : > 5 I ! I X.*.*.;.) r ",
"r ) $.$.X.X. .$.x.5 > ; ; = = & & % $ $ $ # # # # $ $ $ % & & * = ; ; : i $. . .) ' *.*.) r ",
"1 5 2 1 2 2 2 2 2 4 : ; = = & & % $ $ # # @ @ @ # @ # $ $ % & * * = ; > 4 1 1 2 2 1 1 5 2 4 ",
"        2 8 9 2 8 4 : ; = * & % % $ # @ @ @ @ + @ @ # # $ $ % & * = ; ; 2 8 8 8 8 8         ",
"        9 9 0 9 9 5 : = = & & % $ # # @ + + + + + + @ @ # $ % & * = - ; 5 9 9 0 0 9         ",
"        0 x x x j 5 ; = = & % $ # # @ + + O o o o + + @ # # $ % & * = ; i g m 0 0 g         ",
"        g D m D D 5 ; = * & % $ $ @ + O O O o o o O + + @ # $ % & * = ; s B m D ~ g         ",
"        ) ;.o.| I J - = * & $ $ @ @ + O O X X . o o O + @ # # % % * * ; i ! X.*.*.I         ",
"        D $.X.I I 5 ; * * % % $ # @ + O X X . . X o O O @ @ $ $ % * = - i I I ' $.N         ",
"< 2 1 < 2 1 1 2 2 3 ; = & & % $ @ @ + O o . . . X X o + @ # # % & & * ; 3 1 1 2 1 2 < < 2 < ",
"2 9 8 9 9 8 8 8 9 1 ; = & & % # @ @ + O o X . . X X O O + # # % % * * - 1 9 8 9 8 8 9 8 9 2 ",
"8 9 9 9 9 9 9 9 g 2 ; * & % % $ $ + + O o X . . X o O + @ @ $ $ & & = - 5 9 9 9 0 0 9 9 0 2 ",
"7 0 0 m 0 0 g j d q : = * & % $ $ @ + O o o X X o o O + @ # $ % & * = - 5 v 0 m m 0 0 m m 8 ",
"s ~ | | | | D D N 5 ; = * & % $ $ @ + + O O O o O O + @ @ # $ % & * = ; 5 j A A | D W | D s ",
"r X.m.*.*.o.X.o.) q ; = * * % % $ # @ @ + + O O O + + @ # $ $ % & * = ; 5 x.$.I X.*.c.m.X.r ",
"s N E I d B N N E 5 : ; = * & % $ $ @ @ + + + + @ + @ # # $ % & * = = ; 5 E B E E E E E E s ",
"      < < 2 2 2 1 < : ; ; * & % % $ # # @ @ @ @ @ @ @ $ $ $ & & * = ; : < 1 2 2 2 2 <       ",
"        8 8 9 9 9 5 > ; = * * * % % $ $ # # @ # # # # $ % % & * * ; ; : 2 9 8 9 8 8         ",
"        9 g 0 0 9 5 , : ; ; * * & % % $ $ # $ $ $ $ $ % % & * * = ; : : 5 t 0 0 0 9         ",
"        g m 0 m v 5 , : ; ; = * * & & % % % $ $ % $ % & & & * * ; ; : > 5 D m 0 m g         ",
"        N | ~ ~ D 5 , , : ; = = * * & & % % & % % & & & & * = ; ; ; , , i D D | I N         ",
"        ) ;.*.X.X.J 6 , > : ; ; = = * * & & & & & & & * * = ; ; : , , 6 J X.X.&.;.)         ",
"        p a a p a 5 6 6 6 , : ; ; = = * * * & * * * * * = ; ; : : , , 6 5 p a p B p         ",
"2 2 2 2 2 2 2 2 2 4 6 6 6 , > : ; ; ; = = = = = = = = = ; ; : > , 6 >.w 4 2 2 2 2 2 2 2 2 2 ",
"2 9 9 9 9 9 9 9 9 5 e.2.4., , > : : : ; ; ; = ; ; ; = : : : , , 6 >.2.w 5 9 9 9 9 9 9 9 9 2 ",
"8 0 0 0 0 9 9 9 g 5 e.y.8.>.>., , , : : : ; : ; : : : : , , , , >.>.9.e.5 0 9 0 9 0 0 0 0 7 ",
"7 m m m m 0 m m v 5 i.d.9.8.>.>., , , , : , : , : , , , , >.>.>.2.9.j.t.q g m m W j W j m 8 ",
"s D X.~ | ~ ~ ~ B 5 g.l.j.i.8.>.>.>.>., , , , , , 6 , , , >.>.8.9.j.l.t.q N ~ D ~ ) ~ ` | 8 ",
"r X.v.v.*.$.X.X.$.i i.l.l.d.d.8.7.<.<.<.6 6 6 6 6 >.>.>.2.8.8.d.g.l.l.i.J ' o.o.` o.b.b.) p ",
"5 p p a r i t a i 5 i.l.l.l.l.d.d.7.7.4.4.4.<.<.<.<.4.7.9.i.d.l.l.l.l.i.5 p t r r r p p p 5 ",
"        9 9 9 8 8 q i.l.l.l.l.l.l.j.j.i.9.i.9.9.i.i.9.i.d.j.l.l.l.l.l.g.5 9 9 r 9 8         ",
"        d E E N N e i.l.l.l.l.l.l.l.l.j.j.j.d.d.d.j.j.l.l.l.l.l.l.l.z.g.i g N N I g         "
};
