/* XPM */
static char *result[] = {
/* columns rows colors chars-per-pixel */
"80 80 224 2 ",
"   c #4A1402",
".  c #461301",
"X  c #541C02",
"o  c #5C1C02",
"O  c #531302",
"+  c #510D02",
"@  c #621C02",
"#  c #6C1D01",
"$  c #671602",
"%  c #741D01",
"&  c #572202",
"*  c #6B2502",
"=  c #652802",
"-  c #6C2A02",
";  c #672101",
":  c #732401",
">  c #752C01",
",  c #7C2D02",
"<  c #7C2402",
"1  c #743202",
"2  c #7B3402",
"3  c #7D3B02",
"4  c #7F4302",
"5  c #862301",
"6  c #832D01",
"7  c #8C2A02",
"8  c #902A01",
"9  c #833402",
"0  c #8C3301",
"q  c #823A02",
"w  c #8C3C02",
"e  c #933401",
"r  c #9B3502",
"t  c #943B02",
"y  c #9B3C02",
"u  c #A02B01",
"i  c #A53702",
"p  c #A43D01",
"a  c #AB3B02",
"s  c #A93602",
"d  c #B63D02",
"f  c #8E4202",
"g  c #874605",
"h  c #954402",
"j  c #9B4302",
"k  c #9D4B02",
"l  c #934902",
"z  c #9D5202",
"x  c #955805",
"c  c #935910",
"v  c #A24402",
"b  c #AB4402",
"n  c #A44C01",
"m  c #AA4C02",
"M  c #B44502",
"N  c #BA4602",
"B  c #B24B01",
"V  c #BC4C02",
"C  c #A45202",
"Z  c #AC5302",
"A  c #A45C03",
"S  c #AC5B02",
"D  c #B35402",
"F  c #BB5401",
"G  c #B45B02",
"H  c #BB5C02",
"J  c #AE6402",
"K  c #A66802",
"L  c #B46202",
"P  c #BC6402",
"I  c #B56C02",
"U  c #BD6A02",
"Y  c #B36B0B",
"T  c #BC7403",
"R  c #B57903",
"E  c #BA7905",
"W  c #AF7010",
"Q  c #C24F01",
"!  c #C25501",
"~  c #CB5601",
"^  c #C45D02",
"/  c #CA5C01",
"(  c #D45E01",
")  c #C46301",
"_  c #CC6302",
"`  c #C36B02",
"'  c #CC6B02",
"]  c #CA650D",
"[  c #D36201",
"{  c #DA6301",
"}  c #D46B02",
"|  c #DB6B01",
" . c #C47303",
".. c #CC7302",
"X. c #CD7B01",
"o. c #C27F02",
"O. c #D47302",
"+. c #DB7402",
"@. c #D47C02",
"#. c #DB7C02",
"$. c #D77C15",
"%. c #C07113",
"&. c #E26C02",
"*. c #E47502",
"=. c #E47C01",
"-. c #EB7D01",
";. c #F07B01",
":. c #A67B4B",
">. c #CD8703",
",. c #D38301",
"<. c #DC8502",
"1. c #D48D01",
"2. c #DC8C02",
"3. c #D98B0B",
"4. c #D69002",
"5. c #DE9301",
"6. c #DB920C",
"7. c #D89801",
"8. c #C6881B",
"9. c #D78719",
"0. c #DE9C13",
"q. c #DF9C1B",
"w. c #C89017",
"e. c #E38301",
"r. c #EB8502",
"t. c #E38B01",
"y. c #EC8B01",
"u. c #E4880A",
"i. c #F48601",
"p. c #F38C01",
"a. c #E59302",
"s. c #EB9302",
"d. c #E49A03",
"f. c #EC9A02",
"g. c #EA990C",
"h. c #F39402",
"j. c #FB9501",
"k. c #F49B02",
"l. c #FA9B02",
"z. c #F49C0A",
"x. c #E18018",
"c. c #ED9B18",
"v. c #DBA506",
"b. c #E5A403",
"n. c #ECA302",
"m. c #ECAB01",
"M. c #E9A50A",
"N. c #F4A402",
"B. c #FAA301",
"V. c #F5AD02",
"C. c #FAAB02",
"Z. c #FBAB0C",
"A. c #F6A90A",
"S. c #EDB402",
"D. c #EEBB01",
"F. c #F5B402",
"G. c #FCB402",
"H. c #F7BA02",
"J. c #FDBC01",
"K. c #FABB0B",
"L. c #F8B70C",
"P. c #ECAA18",
"I. c #F5AD18",
"U. c #EEB417",
"Y. c #F6B313",
"T. c #FBBA12",
"R. c #F9BC1C",
"E. c #F4B815",
"W. c #C68325",
"Q. c #C7873D",
"!. c #E69A2B",
"~. c #DAA328",
"^. c #DDB024",
"/. c #EAB022",
"(. c #F6B826",
"). c #F5BB35",
"_. c #F2B23A",
"`. c #FEC303",
"'. c #FECB02",
"]. c #FEC30D",
"[. c #FFCB0C",
"{. c #F7C108",
"}. c #FFD204",
"|. c #FFD902",
" X c #FFD30C",
".X c #FCDD08",
"XX c #FEC515",
"oX c #FDCB13",
"OX c #FEC91C",
"+X c #F7C218",
"@X c #FCD214",
"#X c #FFD41A",
"$X c #E6C11F",
"%X c #FDC322",
"&X c #FBC62C",
"*X c #FBC927",
"=X c #FDD224",
"-X c #FFDD2B",
";X c #FED828",
":X c #FCCC34",
">X c #FFDB3A",
",X c #EAD038",
"<X c #FBE52A",
"1X c #FFF122",
"2X c #FFE33C",
"3X c #DCAC4E",
"4X c #D6A655",
"5X c #F1AE48",
"6X c #FECF42",
"7X c #F7C64A",
"8X c #FCD746",
"9X c #F9CC55",
"0X c #FCCF58",
"qX c #FFDD5E",
"wX c #FFE24D",
"eX c #FFE558",
"rX c #FFDF64",
"tX c #FBD96A",
"yX c #FFE767",
"uX c #FEE67B",
"iX c #FFEF98",
"pX c #FCEF87",
"aX c #E8D9A5",
"sX c None",
/* pixels */
"sXsXsXsXsXsXsXsXsXsXsXsXsXsXsXsXsXsXsXsXsXsXsXsXsXsXsXsXsXsXsXsXsXsXsXsXsXsXsXsXsXsXsXsXsXsXsXsXsXsXsXsXsXsXsXsXsXsXsXsXsXsXsXsXsXsXsXsXsXsXsXsXsXsXsXsXsXsXsXsX",
"sXsXsXsXsXsXsXsXsXsXsXsXsXsXsXsXsXsXsXsXsXsXsXsXsXsXsXsXsXsXsXsXsXsXsXsXsXsXsXsXsXsXsXsXsXsXsXsXsXsXsXsXsXsXsXsXsXsXsXsXsXsXsXsXsXsXsXsXsXsXsXsXsXsXsXsXsXsXsXsX",
"sXsXsXsXsXsXsXsXsXsXsXsXsXsXsXsXsXsXsXsXsXsXsXsXsXsXsXsXsXsXsXsXsXsXsXsXsXsXsXsXsXsXsXsXsXsXsXsXsXsXsXsXsXsXsXsXsXsXsXsXsXsXsXsXsXsXsXsXsXsXsXsXsXsXsXsXsXsXsXsX",
"sXsXsXsXsXsXsXsXsXsXsXsXsXsXsXsXsXsXsXsXsXsXsXsXsXsXsXsXsXsXsXsXsXsXsXsXsXsXsXsXsXsXsXsXsXsXsXsXsXsXsXsXsXsXsXsXsXsXsXsXsXsXsXsXsXsXsXsXsXsXsXsXsXsXsXsXsXsXsXsX",
"sXsXsXsXsXsXsXsXsXsXsXsXsXsXsXsXsXsXsXsXsXsXsXsXsXsXsXsXsXsXsXsXsXsXsXsXsXsXsXsXsXsXsXsXsXsXsXsXsXsXsXsXsXsXsXsXsXsXsXsXsXsXsXsXsXsXsXsXsXsXsXsXsXsXsXsXsXsXsXsX",
"sXsXsXsXsXsXsXsXsXsXsXsXsXsXsXsXsXsXsXsXsXsXsXsXsXsXsXsXsXsXsXsXsXsXsXsXsXsXsXsXsXsXsXsXsXsXsXsXsXsXsXsXsXsXsXsXsXsXsXsXsXsXsXsXsXsXsXsXsXsXsXsXsXsXsXsXsXsXsXsX",
"sXsXsXsXsXsXsXsXsXsXsXsXsXsXsXsXsXsXsXsXsXsXsXsXsXsXsXsXsXsXsXsXsXsXsXsXsXsXsXsXsXsXsXsXsXsXsXsXsXsXsXsXsXsXsXsXsXsXsXsXsXsXsXsXsXsXsXsXsXsXsXsXsXsXsXsXsXsXsXsX",
"sXsXsXsXsXsXsXsXsXsXsXsXsXsXsXsXsXsXsXsXsXsXsXsXsXsXsXsXsXsXsXsXsXsXsXsXsXsXsXsXsXsXsXsXsXsXsXsXsXsXsXsXsXsXsXsXsXsXsXsXsXsXsXsXsXsXsXsXsXsXsXsXsXsXsXsXsXsXsXsX",
"sXsXsXsXsXsXsXsXsXsXsXsXsXsXsXsXsXsXsXsXsXsXsXsXsXsXsXsXsXsXsXsXsXsXsXsXsXsXsXsXsXsXsXsXsXsXsXsXsXsXsXsXsXsXsXsXsXsXsXsXsXsXsXsXsXsXsXsXsXsXsXsXsXsXsXsXsXsXsXsX",
"sXsXsXsXsXsXsXsXsXsXsXsXsXsXsXsXsXsXsXsXsXsXsXsXsXsXsXsXsXsXsXsXsXsXsXsXsXsXsXsXsXsXsXsXsXsXsXsXsXsXsXsXsXsXsXsXsXsXsXsXsXsXsXsXsXsXsXsXsXsXsXsXsXsXsXsXsXsXsXsX",
"sXsXsXsXsXsXsXsXsXsXsXsXsXsXsXsXsXsXsXsXsXsXsXsXsXsXsXsXsXsXsXsXsXsXsXsXsXsXsXsXsXsXsXsXsXsXsXsXsXsXsXsXsXsXsXsXsXsXsXsXsXsXsXsXsXsXsXsXsXsXsXsXsXsXsXsXsXsXsXsX",
"sXsXsXsXsXsXsXsXsXsXsXsXsXsXsXsXsXsXsXsXsXsXsXsXsXsXsXsXsXsXsXsXsXsXsXsXsXsXsXsXsXsXsXsXsXsXsXsXsXsXsXsXsXsXsXsXsXsXsXsXsXsXsXsXsXsXsXsXsXsXsXsXsXsXsXsXsXsXsXsX",
"sXsXsXsXsXsXsXsXsXsXsXsXsXsXsXsXsXsXsXsXsXsXsXsXsXsXsXsXsXsXsXsXsXsXsXsXsXsXsXsXsXsXsXsXsXsXsXsXsXsXsXsXsXsXsXsXsXsXsXsXsXsXsXsXsXsXsXsXsXsXsXsXsXsXsXsXsXsXsXsX",
"sXsXsXsXsXsXsXsXsXsXsXsXsXsXsXsXsXsXsXsXsXsXsXsXsXsXsXsXsXsXsXsXsXsXsXsXsXsXsXsXsXsXsXsXsXsXsXsXsXsXsXsXsXsXsXsXsXsXsXsXsXsXsXsXsXsXsXsXsXsXsXsXsXsXsXsXsXsXsXsX",
"sXsXsXsXsXsXsXsXsXsXsXsXsXsXsXsXsXsXsXsXsXsXsXsXsXsXsXsXsXsXsXsXsXsXsXsXsXsXsXsXsXsXsXsXsXsXsXsXsXsXsXsXsXsXsXsXsXsXsXsXsXsXsXsXsXsXsXsXsXsXsXsXsXsXsXsXsXsXsXsX",
"sXsXsXsXsXsXsXsXsXsXsXsXsXsXsXsXsXsXsXsXsXsXsXsXsXsXsXsXsXsXsXsXsXsXsXsXsXsXsXsXsXsXsXsXsXsXsXsXsXsXsXsXsXsXsXsXsXsXsXsXsXsXsXsXsXsXsXsXsXsXsXsXsXsXsXsXsXsXsXsX",
"sXsXsXsXsXsXsXsXsXsXsXsXsXsXsXsXsXsXsXsXsXsXsXsXsXsXsXsXsXsXsXsXsXsXsXsXsXsXsXsXsXsXsXsXsXsXsXsXsXsXsXsXsXsXsXsXsXsXsXsXsXsXsXsXsXsXsXsXsXsXsXsXsXsXsXsXsXsXsXsX",
"sXsXsXsXsXsXsXsXsXsXsXsXsXsXsXsXsXsXsXsXsXsXsXsXsXsXsXsXsXsXsXsXsXsXsXsXsXsXsXsXsXsXsXsXsXsXsXsXsXsXsXsXsXsXsXsXsXsXsXsXsXsXsXsXsXsXsXsXsXsXsXsXsXsXsXsXsXsXsXsX",
"sXsXsXsXsXsXsXsXsXsXsXsXsXsXsXsXsXsXsXsXsXsXsXsXsXsXsXsXsXsXsXsXsXsXsXsXsXsXsXsXsXsXsXsXsXsXsXsXsXsXsXsXsXsXsXsXsXsXsXsXsXsXsXsXsXsXsXsXsXsXsXsXsXsXsXsXsXsXsXsX",
"sXsXsXsXsXsXsXsXsXsXsXsXsXsXsXsXsXsXsXsXsXsXsXsXsXsXsXsXsXsXsXsXsXsXsXsXsXsXsXsXsXsXsXsXsXsXsXsXsXsXsXsXsXsXsXsXsXsXsXsXsXsXsXsXsXsXsXsXsXsXsXsXsXsXsXsXsXsXsXsX",
"sXsXsXsXsXsXsXsXsXsXsXsXsXsXsXsXsXsXsXsXsXsXsXsXsXsXsXsXsXsXsXsXsXsXsXsXsXsXsXsXsXsXsXsXsXsXsXsXsXsXsXk sXsXsXsXsXsXsXsXsXsXsXsXsXsXsXsXsXsXsXsXsXsXsXsXsXsXsXsX",
"sXsXsXsXsXsXsXsXsXsXsXsXsXsXsXsXsXsXsXsXsXsXsXsXsXsXsXsXsXsXsXsXsXsXsXe sXsXsXsXsXsXsXsXsXsXsXsXsXsXB 9 sXsXsXsXsXsXsXsXsXsXsXsXsXsXsXsXsXsXsXsXsXsXsXsXsXsXsXsX",
"sXsXsXsXsXsXsXsXsXsXsXsXsXsXsXsXsXsXsXsXB v sXsXsXsXsXsXsXsXsXsXsXsX! ~ sXsXsXsXsXsXsXsXsXsXsXsXsXsXv h D sXsXsXsXsXsXsXsXsXsXsXsXsXsXsXsXsXsXsXsXsXsXsXsXsXsXsX",
"sXsXsXsXsXsXsXsXsXsXsXsXsXsXsXsXsXsXsXsX! > sXsXsXsXsXsXsXsXsXsX-.+.^ sXsXsXsXsXsXsXsXsXsXsXsXsXsXsXj H y.sXsXsXsXsXsXsXsXsXsXsXsXsXsXsXsXsXsXsXsXsXsXsXsXsXsXsX",
"sXsXsXsXsXsXsXsXsXsXsXsXsXsXsXsXsXsXsXp V 6 sXsXsXsXsXsXsXsXsX~ _ sXsXsXsXsXsXsXO./ sXsXsXsXsXsXsXsXsXsX' G sXsXsXsXsXsXsXsXsXsXsXsXsXsXsXsXsXsXsXsXsXsXsXsXsXsX",
"sXsXsXsXsXsXsXsXsXsXsXsXsXsXsXsXsXsXsX~ { N sXsXsXsXsXsXsXsXsXsXsXsXsXsXsXsXsX_ p.a.sXsXsXsXsXsXsXsXsXsXsX_ sXsXsXsXsXsXsXsXsXsXsXsXsXsXsXsXsXsXsXsXsXsXsXsXsXsX",
"sXsXsXsXsXsXsXsXsXsXsXsXsXsXsXsXsXsXsX^ y.*.F sXsXsXsXsXsXsXsXsXsXsXsXsXsX) [ { -.2.sXsXsXsXsXsXsXsXsXsXsX' sXsXsXsXsXsXsXsXsXsXsXsXsXsXsXsXsXsXsXsXsXsXsXsXsXsX",
"sXsXsXsXsXsXsXsXsXsXsXsXsXsXsXsXsXsXsXH k.e.sXsXsXsXsXsXsXsXsXsXsXsXsXsXG | t ~ k.sXsXsXsXsXsXsXsXsXsXsXsX+.sXsXsXsXsXsXsXsXsXsXsXsXsXsXsXsXsXsXsXsXsXsXsXsXsXsX",
"sXsXsXsXsXsXsXsXsXsXsXsXsXsXsXsXsXsXsXF / ^ sXsXsXsXsXsXsXsXsXsXsXsXsXsXv } ^ -.s.sXsXsXsXsXsXsXsXsXsXsX..<.sXsXsXsXsXsXsXsXsXsXsXsXsXsXsXsXsXsXsXsXsXsXsXsXsXsX",
"sXsXsXsXsXsXsXsXsXsXsXsXsXsXsXsXsXsXsXsX: sXsXsXsXsXsXsXsXsXsXsXsXsXsX% e =.h.h.} sXsXsXsXsXsXsXsXsXsXsXG O.` sXsXsXsXsXsXsXsXsXsXsXsXsXsXsXsXsXsXsXsXsXsXsXsXsX",
"sXsXsXsXsXsXsXsXsXsXsXsXsXsXsXsXsXsXsXsXsXsXsXsXsXsXsXsXsXsXsXsXsXsXsXsXsXO.C.B.B G d.sXsXsXsXsXsXsXsXj k O.` sXsXsXsXsXsXsXsXsXsXsXsXsXsXsXsXsXsXsXsXsXsXsXsXsX",
"sXsXsXsXsXsXsXsXsXsXsXsXsXsXsXsXsXsXsXsXsXsXsXsXsXsXsXsXsXsXsXsXsXsXsXsXsXsXB.J.` P G.e.sXsXsXsXsXsXsX2 I h.#.9 sXsXsXsXsXsXsXsXsXsXsXsXsXsXsXsXsXsXsXsXsXsXsXsX",
"sXsXsXsXsXsXsXsXsXsXsXsXsXsXsXsXsXsXsXsXsXsXsXsXsXsXsXsXsXsXsXsXsXsXsXsXsXsXh.G.n.U d.sXsXsXsXsXsXsXt 2 <.B.f.m sXsXsXsXsXsXsXsXsXsXsXsXsXsXsXsXsXsXsXsXsXsXsXsX",
"sXsXsXsXsXsXsXsXsXsXsXsXsXsXsXsXsXsXsXsXsXsXsXsXsXsXsXsXsXsXsXsXsXsXsXsXsX9 e.j.A.E sXsXsXsXsXsXsXm 2 Z h.<.y.P sXsXsXsXsXsXsXsXsXsXsXsXsXsXsXsXsXsXsXsXsXsXsXsX",
"sXsXsXsXsXsXsXsXsXsXsXsXsXsXsXsXsXsXsXsXsXsXsXsXsXsXsXsXsXsXsXsXsXsXsXsXr.) =.i.j.H.sXsXsXsXsXsXZ w 2 ..k.P ..sXsXsXsXsXsXsXsXsXsXsXsXsXsXsXsXsXsXsXsXsXsXsXsXsX",
"sXsXsXsXsXsXsXsXsXsXsXsXsXsXsXsXsXsXsXsXsXsX) sXsXsXsXsXsXsXsXsXsXsXsXw F.m.O.i.h.B.H.sXsXsX@.Z 2 = H =.<.F ) sXsXsXsXsXsXsXsXsXsXsXsXsXsXsXsXsXsXsXsXsXsXsXsXsX",
"sXsXsXsXsXsXsXsXsXsXsXsXsXsXsXsXsXsXsX# u sXX.sXsXsXsXsXsXsXsXsXsXsXv F Z.+XT i.p.h.B.sXsXsXA & o H } =.} Z ) sXsXsXsXD sXsXsXsXsXsXsXsXsXsXsXsXsXsXsXsXsXsXsXsX",
"sXsXsXsXsXsXsXsXsXsXsXsXsXsXsXsXsXsXO $ s F 2.sXsXsXsXsXsXsXsXsXsXn [ e.G.K.` y.;.h.h.y.sXsX- X H e.e.#.D D ' sXsXsXsXsX@.,.- sXsXsXsXsXsXsXsXsXsXsXsXsXsXsXsXsX",
"sXsXsXsXsXsXsXsXsXsXsXsXsXsXsXsXsXsXd ~ e.a.sXsXsXsXsXsXsXsXsXsXsXu.-.C.J.L.G y.-.z.z.e.sXsX& l e.@.n , 9 @.t.sXsXsXsXsXsXsX` h 0 e sXsXsXsXsXsXsXsXsXsXsXsXsXsX",
"sXsXsXsXsXsXsXsXsXsXsXsXsXsXsXsXsXsXk.f...sXsXsXsXsXsXsXsXsXsXsXz.z.B.G.J.n.k h.j.j.k.=.sXsX2 `  .k - t m sXP sXsXsXsXsXsXsXC #.r.| sXsXsXsXsXsXsXsXsXsXsXsXsXsX",
"sXsXsXsXsXsXsXsXsXsXsXsXsXsXsXsXsXsXn.sXsXsXsXsXsXsXsXsXsXsXa.y.z.z.C.G.F.=.' C.l.j.k.*.sXsXP I ..P , D sXsXsXsXsXsXsXsXsXsX, ` l.i./ sXsXsXsXsXsXsXsXsXsXsXsXsX",
"sXsXsXsXsXsXsXsXsXsXsXsXsXsXsXsXsXsXf.sXsXsXsXsXsXsXsXsXsX#.' j <.| } S S [ l.G.p.C.h.e.sXsX..J t.O.y ^ sXsXsXsXsXsXsXsXsXe e  .u.+.-.sXsXsXsXsXsXsXsXsXsXsXsXsX",
"sXsXsXsXsXsXsXsXsXsXsXsXsXsXsXsXsXsXa.sXsXsXsXsX# sX2 T ,.+.G j e./ B , t s.K.A.*.U.Y sXsXY P J t.#.b sXsXsXsXsXsXsXsXsXsXB B t.sXS y.sXsXsXsXsXsXsXsXsXsXsXsXsX",
"sXsXsXsXsXsXsXsXsXsXsXsXsXsXsXsXsXsXe.m.sXsXsXt ! H O.k P e.#.) &.*.m / h.].OXh.-._.~.%X;X0.sXI 5.#.v sXsXsXsXsXsXsXsXsXsX~ O.1.sXsXt.t.sXsXsXsXsXsXsXsXsXsXsXsX",
"sXsXsXsXsXsXsXsXsXsXsXsXsXsXs s sXF =.N._ sXsX| j.k.D 2 <.C.s._ ( r.n t.%XqX%Xi.z.qX=X].+Xx & U >.a.y sXsXsXsXsXsXsXsXsXsX=.y.sXsXz O.#.sXsXsXsXsXsXsXsXsXsXsXsX",
"sXsXsXsXsXsXsXsXsXsXsXsXsXsX{ N t m ) V.` sX~ i.p.y.t D k.B.z.| F _ e.XXyXyXz.| r.9XP.oXU.k G ' I F.Z sXsXsXsXsXsXsXsXsXsX<.t.>   Z O.#.sXsXsXsXsXsXsXsXsXsXsXsX",
"sXsXsXsXsXsXsXsXsXsXsXsXsXsX+.N b > D N.>.sX| e._ a.m } z.L.B.P X h H.[.8X:Xr.( p.tXsX(.T.e.l.' k J.,.sXsXsXsXsXsXsXsXsXo J f.9 > H +.e.sXsXsXsXsXsXsXsXsXsXsXsX",
"sXsXsXsXsXsXsXsXsXsXsXsXsXsX~ s 5 @ F -.1.sXy.@.v A t.y.f.P.Y.F + x F.].eX&X| { B.rX:.~.XXB.j.' G J.F. .sXsXsXsXsXsXsXsX; q e.v > H O.B.sXsXsXsXsXsXsXsXsXsXsXsX",
"sXsXsXsXsXsXsXsXsXsXsXsXsXsX| r $ 1 ^ ~ t.2.s.I X n k.y.P H c.#.t w.+.(.yX).( -.Z.8XW./.oXf.=.-.} C.'.5.G sXsXsX/ M 0 F r F ~ , = ^ +.a...sXsXsXsXsXsXsXsXsXsXsX",
"sXsXsXsXsXsXsXsXsXsXsXsXsXsX=.) 8 j k 0 t.=.O.L k +.p.z.) D sXsX3.c.[ !.uX).{ l.G.>.O.T.oXE G h.+.C.'.J.5.sX@.h.{ V n [ =.O.y 9 > _ +.z ..sXsXsXsXsXsXsXsXsXsXsX",
"sXsXsXsXsXsXsXsXsXsXsXsXsXsXsX_ 6 y w O ,.p.' +.=.y.h.k.) ' sXsXU.T.O.Y pX5X&.R.<.2 @.%X7.sXsXt.y.G.H.f.#X@XH.m.sXsX@.&.O.- 6 * = } @.f @.sXsXsXsXsXsXsXsXsXsXsX",
"sXsXsXsXsXsXsXsXsXsXsXsXsXsXsXsXt y q * +.r.y.=.#.G <.<._ y.6.sXS.`.P k 0X0X*.(.L 1 P.I.L sXz @.e.G.7.A 8X1X.XS.sXsXy.{ B ; r > 3 B.@.' e.sXsXsXsXsXsXsXsXsXsXsX",
"sXsXsXsXsXsXsXsXsXsXsXsX2.sXsXsXV b 3 w y  .l.e.#.B / [ B 9.U. .R.[.A C ).9X*.(.sXz M.u.> . Z } e.k.z W eX<XM.S.sXsXh.( M 0 p m X.G.y.O.sXsXsXsXsXsXsXsXsXsXsXsX",
"sXsXsXsXsX,.sXsXsXsXsXv m.sXsX^ ~ p 4 j w G k.e.k.f.#.*._ 9.6.P.wX>Xq.a.W.7X| c.3Xw 6.f., - P } y.' t /.pXsXm.X.sXsXN.[ Q i ( _ 1.I 2.#.sXsXsXsXsXsXsXsXsXsXsXsX",
"sXsXsXsXsX3.sXsXsXsX<.a.F.X.b F B 9 g v Z 0 e.u.H.N.N.H.B.*.a.T.>XwXR.@.c ).| -._.W t.A.v , H +.k.f I >XaXsX1.sXsXsXn.+.{ *.h.' 7.A ..k.` sXsXsXsXsXsXsXsXsXsXsX",
"sXsXsXsXsXs.sXsXsXsXn.F.J.a.b a 8 2 x m _ sX@.N.G.+.=.}.2.&.k.B.U.-X-X,.g R.| -.Z.)./.9., - ^ +.a.- X.6X3XsX) sXsXsXa.y.i.C.B._ b.d.O...e.) sXsXsXsXsXsXsXsXsXsX",
"sXsXsXsXsXk.sXsXsXsXf.<.`.n.m 9 # 9 A G ^ O J G.{.*.t.S.H $.6XT.G.].<XH.a.G.-.-.B.].wXQ.0 1 _ #.L - 2.6X).2.' sXsXsXh.y.=.H.B.} M.sXsX) a.O.sXsXsXsXsXsXsXsXsXsX",
"sXsXsXsXr.f.sXsXsXO.{ ' {.`.P o : 0 K ' v ; ..G.'.f.N.Z a 5XrXZ.B.2.;X@XH.L.u._ l.J.>X4Xq - [ @.f 0 f.&XR.t.m sXsXn.2.e.[ f.`.@.g.,XsXt.a.sXsXsXsXsXsXsXsXsXsXsX",
"sXsXsXsXy.1.sXsXsXD M P H.k.! 0 r w E +.j U z.V.|.J.A.} ] 7XK.C.C.Z ^.;Xb.N.' ' r.`.=X4X: 3 k.,.2 G j.I.E.=.Z o sXn.` h.*.+.S.t.f.$Xm.G.N.sXsXsXsXsXsXsXsXsXsXsX",
"sXsXsXsXa.sXsX' P j i J H.k.~ ~ r x T &.} a.h.s.|.'.`.B.I.=X=XoXn.2 8.-X7.f.H <.-.].:XQ.0  .].6.D } i.g.L.#.@.l g 1.a.B.k.X.T d.f.@Xk.J.2.2.sXsXsXsXsXsXsXsXsXsX",
"sXsXsXr.,.o o D C h y I H.a.N a = R D *.p.@...V. X`.`.J.@X-X2X[.t.> 8.-Xd.f.P a.e.oX5X$._ 1.U.A.^ ) _ ' F.e.f.` j x a.h.C.a.J n.N.}.b.S.' X.sXsXsXsXsXo sXsXsXsX",
"sXsXsXt.G # 5 ! t G ' 1.H.#.a : 1 A < a ' =...].OX`.}.}.K.=X XJ.a.w q.eX3.d.H a.y.*X5Xj.e.v.&XT t.+.2 A B.y.V.I v w ' ' N.4.q <.k.F.R L ' X.sXy sXsXsX  sXsXsXsX",
"sXsXsX,.r 5 5 r 1 @.` a.y.~ d 6 - , @ 8 r <.F.oXoX`.}.'.{.#X`.J.f.) (.yX%.t.D a.f.%X7XZ.k.+X:Xk S r.C X.e.e.F.v.9 2 F q <.,.- S n.V.K 1 O.P o.@.sXsX; sXsXsXsXsX",
"sXsXsX_ u $ o w f r i y e < < &   o ; 5 # v.G.oX].`.S.6.wX<X'.G.k.k.(.uXW @.D a.h.R.iXrXOXwX&XS Z y.<.@.G ) 2.K.c t m = o.) = h R H.R 1 O.o.H.C.X.n o sXsXsXsXsX",
"sXsXsXsXsXsXsXsXsXsXsXsXsXsXsXsXsXsXsXsXsXsXsXsXsXsXsXsXsXsXsXsXsXsXsXsXsXsXsXsXsXsXsXsXsXsXsXsXsXsXsXsXsXsXsXsXsXsXsXsXsXsXsXsXsXsXsXsXsXsXsXsXsXsXsXsXsXsXsXsX",
"sXsXsXsXsXsXsXsXsXsXsXsXsXsXsXsXsXsXsXsXsXsXsXsXsXsXsXsXsXsXsXsXsXsXsXsXsXsXsXsXsXsXsXsXsXsXsXsXsXsXsXsXsXsXsXsXsXsXsXsXsXsXsXsXsXsXsXsXsXsXsXsXsXsXsXsXsXsXsXsX",
"sXsXsXsXsXsXsXsXsXsXsXsXsXsXsXsXsXsXsXsXsXsXsXsXsXsXsXsXsXsXsXsXsXsXsXsXsXsXsXsXsXsXsXsXsXsXsXsXsXsXsXsXsXsXsXsXsXsXsXsXsXsXsXsXsXsXsXsXsXsXsXsXsXsXsXsXsXsXsXsX",
"sXsXsXsXsXsXsXsXsXsXsXsXsXsXsXsXsXsXsXsXsXsXsXsXsXsXsXsXsXsXsXsXsXsXsXsXsXsXsXsXsXsXsXsXsXsXsXsXsXsXsXsXsXsXsXsXsXsXsXsXsXsXsXsXsXsXsXsXsXsXsXsXsXsXsXsXsXsXsXsX",
"sXsXsXsXsXsXsXsXsXsXsXsXsXsXsXsXsXsXsXsXsXsXsXsXsXsXsXsXsXsXsXsXsXsXsXsXsXsXsXsXsXsXsXsXsXsXsXsXsXsXsXsXsXsXsXsXsXsXsXsXsXsXsXsXsXsXsXsXsXsXsXsXsXsXsXsXsXsXsXsX",
"sXsXsXsXsXsXsXsXsXsXsXsXsXsXsXsXsXsXsXsXsXsXsXsXsXsXsXsXsXsXsXsXsXsXsXsXsXsXsXsXsXsXsXsXsXsXsXsXsXsXsXsXsXsXsXsXsXsXsXsXsXsXsXsXsXsXsXsXsXsXsXsXsXsXsXsXsXsXsXsX",
"sXsXsXsXsXsXsXsXsXsXsXsXsXsXsXsXsXsXsXsXsXsXsXsXsXsXsXsXsXsXsXsXsXsXsXsXsXsXsXsXsXsXsXsXsXsXsXsXsXsXsXsXsXsXsXsXsXsXsXsXsXsXsXsXsXsXsXsXsXsXsXsXsXsXsXsXsXsXsXsX",
"sXsXsXsXsXsXsXsXsXsXsXsXsXsXsXsXsXsXsXsXsXsXsXsXsXsXsXsXsXsXsXsXsXsXsXsXsXsXsXsXsXsXsXsXsXsXsXsXsXsXsXsXsXsXsXsXsXsXsXsXsXsXsXsXsXsXsXsXsXsXsXsXsXsXsXsXsXsXsXsX",
"sXsXsXsXsXsXsXsXsXsXsXsXsXsXsXsXsXsXsXsXsXsXsXsXsXsXsXsXsXsXsXsXsXsXsXsXsXsXsXsXsXsXsXsXsXsXsXsXsXsXsXsXsXsXsXsXsXsXsXsXsXsXsXsXsXsXsXsXsXsXsXsXsXsXsXsXsXsXsXsX",
"sXsXsXsXsXsXsXsXsXsXsXsXsXsXsXsXsXsXsXsXsXsXsXsXsXsXsXsXsXsXsXsXsXsXsXsXsXsXsXsXsXsXsXsXsXsXsXsXsXsXsXsXsXsXsXsXsXsXsXsXsXsXsXsXsXsXsXsXsXsXsXsXsXsXsXsXsXsXsXsX",
"sXsXsXsXsXsXsXsXsXsXsXsXsXsXsXsXsXsXsXsXsXsXsXsXsXsXsXsXsXsXsXsXsXsXsXsXsXsXsXsXsXsXsXsXsXsXsXsXsXsXsXsXsXsXsXsXsXsXsXsXsXsXsXsXsXsXsXsXsXsXsXsXsXsXsXsXsXsXsXsX",
"sXsXsXsXsXsXsXsXsXsXsXsXsXsXsXsXsXsXsXsXsXsXsXsXsXsXsXsXsXsXsXsXsXsXsXsXsXsXsXsXsXsXsXsXsXsXsXsXsXsXsXsXsXsXsXsXsXsXsXsXsXsXsXsXsXsXsXsXsXsXsXsXsXsXsXsXsXsXsXsX",
"sXsXsXsXsXsXsXsXsXsXsXsXsXsXsXsXsXsXsXsXsXsXsXsXsXsXsXsXsXsXsXsXsXsXsXsXsXsXsXsXsXsXsXsXsXsXsXsXsXsXsXsXsXsXsXsXsXsXsXsXsXsXsXsXsXsXsXsXsXsXsXsXsXsXsXsXsXsXsXsX",
"sXsXsXsXsXsXsXsXsXsXsXsXsXsXsXsXsXsXsXsXsXsXsXsXsXsXsXsXsXsXsXsXsXsXsXsXsXsXsXsXsXsXsXsXsXsXsXsXsXsXsXsXsXsXsXsXsXsXsXsXsXsXsXsXsXsXsXsXsXsXsXsXsXsXsXsXsXsXsXsX",
"sXsXsXsXsXsXsXsXsXsXsXsXsXsXsXsXsXsXsXsXsXsXsXsXsXsXsXsXsXsXsXsXsXsXsXsXsXsXsXsXsXsXsXsXsXsXsXsXsXsXsXsXsXsXsXsXsXsXsXsXsXsXsXsXsXsXsXsXsXsXsXsXsXsXsXsXsXsXsXsX",
"sXsXsXsXsXsXsXsXsXsXsXsXsXsXsXsXsXsXsXsXsXsXsXsXsXsXsXsXsXsXsXsXsXsXsXsXsXsXsXsXsXsXsXsXsXsXsXsXsXsXsXsXsXsXsXsXsXsXsXsXsXsXsXsXsXsXsXsXsXsXsXsXsXsXsXsXsXsXsXsX"
};
