/* XPM */
static char *result[] = {
/* columns rows colors chars-per-pixel */
"50 50 215 2 ",
"   c #121013",
".  c #1A1A30",
"X  c #2F2B31",
"o  c #610000",
"O  c #710000",
"+  c #7C0000",
"@  c #7C0A0A",
"#  c #732E2F",
"$  c #4A4839",
"%  c #4A4A4C",
"&  c #6B4747",
"*  c #646467",
"=  c gray50",
"-  c #8C0000",
";  c #820000",
":  c #9B0000",
">  c #980606",
",  c #9D1B1B",
"<  c #A30000",
"1  c #AC0202",
"2  c #B40000",
"3  c #BB0707",
"4  c #B51515",
"5  c #A7383C",
"6  c #AA292D",
"7  c #CB0000",
"8  c #CA0606",
"9  c #D30000",
"0  c #DB0000",
"q  c #E20101",
"w  c #EA0000",
"e  c #E30C0C",
"r  c #F40000",
"t  c #FD0101",
"y  c #FB0C0C",
"u  c #FD1818",
"i  c #E41111",
"p  c #C63336",
"a  c #D13131",
"s  c #F32323",
"d  c #FA3838",
"f  c #985900",
"g  c #A65402",
"h  c #9A6201",
"j  c #A46A01",
"k  c #BF6600",
"l  c #A77506",
"z  c #B67C02",
"x  c #BA7C01",
"c  c #B27303",
"v  c #AA741D",
"b  c #B77D16",
"n  c #A76F1E",
"m  c #9B6335",
"M  c #BD7728",
"N  c #BC7536",
"B  c #C37D30",
"V  c #944B4E",
"C  c #A24444",
"Z  c #9C7575",
"A  c #A7787D",
"S  c #AA6969",
"D  c #D04B4E",
"F  c #FC5F5F",
"G  c #F65B5B",
"H  c #E55252",
"J  c #C47D41",
"K  c #FB6A6A",
"L  c #B78302",
"P  c #BB8402",
"I  c #BC8B04",
"U  c #BB890B",
"Y  c #BE9206",
"T  c #BF920A",
"R  c #BA8218",
"E  c #B98322",
"W  c #B58A2A",
"Q  c #C18500",
"!  c #C48C01",
"~  c #C48A0E",
"^  c #C29404",
"/  c #CA9300",
"(  c #C39A06",
")  c #CD9B01",
"_  c #C9980B",
"`  c #D29F00",
"'  c #C38814",
"]  c #C6A106",
"[  c #CAA506",
"{  c #CEAB06",
"}  c #CFA10A",
"|  c #D3A300",
" . c #D2AC04",
".. c #DAAC01",
"X. c #D2A00B",
"o. c #D5B405",
"O. c #DBB302",
"+. c #DBBC05",
"@. c #D9B809",
"#. c #D7AB19",
"$. c #DAB518",
"%. c #CEA41C",
"&. c #E3BB00",
"*. c #E0B400",
"=. c #E1BD13",
"-. c #CD9227",
";. c #C88638",
":. c #C48F2A",
">. c #DCA93B",
",. c #D2A424",
"<. c #E5BA20",
"1. c #E2AC39",
"2. c #EDBF31",
"3. c #DEC004",
"4. c #E2C303",
"5. c #E9C401",
"6. c #E6CA03",
"7. c #EBCC02",
"8. c #E5C50F",
"9. c #F1CC07",
"0. c #EDD202",
"q. c #EFD308",
"w. c #F2D501",
"e. c #F5DA01",
"r. c #F9DE01",
"t. c #F5D509",
"y. c #EDD211",
"u. c #FDE200",
"i. c #EDC337",
"p. c #B98040",
"a. c #B5994A",
"s. c #BCA663",
"d. c #C78549",
"f. c #D99749",
"g. c #DB9752",
"h. c #DA9A53",
"j. c #D59556",
"k. c #D18B4B",
"l. c #E19F5B",
"z. c #DCA843",
"x. c #DCA05F",
"c. c #CFB753",
"v. c #E3A35E",
"b. c #E6AB5B",
"n. c #E8B24D",
"m. c #D29A65",
"M. c #CFB26C",
"N. c #E4A562",
"B. c #EAAC6A",
"V. c #E7AA66",
"C. c #EDB16E",
"Z. c #EEB473",
"A. c #F2B974",
"S. c #F5BC7A",
"D. c #F3B977",
"F. c #F1BA6A",
"G. c #F1D152",
"H. c #D7C475",
"J. c #F8C17E",
"K. c #8F7B94",
"L. c #8A8A93",
"P. c #96878D",
"I. c #A9939A",
"U. c #BAAC91",
"Y. c #8989A5",
"T. c #9893AA",
"R. c #AA96AB",
"E. c #9FA0B6",
"W. c #A6A2A6",
"Q. c #A9A7B8",
"!. c #B6AEAD",
"~. c #E28D8D",
"^. c #FF9191",
"/. c #F28E8E",
"(. c #C7B698",
"). c #C7B580",
"_. c #F1BC84",
"`. c #DAB0B0",
"'. c #C0B7BA",
"]. c #FDAEAE",
"[. c #CFC491",
"{. c #FCC584",
"}. c #FFC989",
"|. c #F6C388",
" X c #F3C897",
".X c #EBE094",
"XX c #D7CCAD",
"oX c #DCD3A7",
"OX c #C8C1BC",
"+X c #E8D4AE",
"@X c #ECE5BA",
"#X c #B3B4C3",
"$X c #B9BAC8",
"%X c #C1BFC7",
"&X c #BFC0CE",
"*X c #C6C4C7",
"=X c #CACAD5",
"-X c #C7C8D4",
";X c #D8D5D8",
":X c #D3CEC9",
">X c #FDCECE",
",X c #F9D5D5",
"<X c #E6DED4",
"1X c #F5E8D7",
"2X c #E8E3C5",
"3X c #DADAE3",
"4X c #D7D7E0",
"5X c #E0E1E7",
"6X c #EAEAEF",
"7X c #E7E5E9",
"8X c #EDEDF2",
"9X c #F1F2F5",
"0X c #FDFDFD",
"qX c #F9F5F5",
"wX c None",
/* pixels */
"wXwXwXwXwXwXwXwXwXwXwXwXwXwXwXwXwXwXwXwXwXwXwXwXwXwXwXwXwXwXwXwXwXwXwXwXwXwXwXwXwXwXwXwXwXwXwXwXwXwX",
"wXwXwXwXwXwXwXwXwXwXwXwXwXwXwXwXwXwXwXwXwXwXwXwXwXwXwXwXwXwXwXwXwXwXwXwXwXwXwXwXwXwXwXwXwXwXwXwXwXwX",
"wXwXwXwXwXwXwXwXwXwXwXwXwXwXwXwXwXwXwXwXwXwXwXwXwXwXwXwXwXwXwXwXwXwXwXwXwXwXwXwXwXwXwXwXwXwXwXwXwXwX",
"wXwXwXwXwXwXwXwXwXwXwXwXwXwXwXwXwXwX| / / / ) ` wXwXwXwXwXwXwXwXwXwXwXwXwXwXwXwXwXwXwXwXwXwXwXwXwXwX",
"wXwXwXwXwXwXwXwXwXwXwXwXwXwXwXwXwXwXwXwXQ x x ! ! / ` | wXwXwXwXwXwXwXwXwXwXwXwXwXwXwXwXwXwXwXwXwXwX",
"wXwXwXwXwXwXwXwXwXwXwXwXwXwXwXwXwXwXwXwXwXQ x P I I ^ ^ ) | wXwXwXwXwXwXwXwXwXwXwXwXwXwXwXwXwXwXwXwX",
"wXwXwXwXwXwXwXwXwXwXwXwXwXwXwXwXwXwXwXwXwXwXQ x P ! ( ^ Y ^ / | O.wXwXwXwXwXwXwXwXwXwXwXwXwXwXwXwXwX",
"wXwXwXwXwXwXwXwXwXwXwXwXwXwXwXwXwXwXwXwXwXwXwXx z P ^ ( ( ] ( ^ / | O.wXwXwXwXwXwXwXwXwXwXwXwXwXwXwX",
"wXwXwXwXwXwXwXwXwXwXwXwXwXwXwXwXwXwXwXwXwXwXwXwXx z P T ( [ { { ] Y ) O.wXwXwXwXwXwXwXwXwXwXwXwXwXwX",
"wXwXwXwXwXwXwXwXwXwXwXwXwXwXwXwXwXwX&.wXwXwXwXwXwXz z I Y ( { o.o.{ Y ^ ..wXwXwXwXwXwXwXwXwXwXwXwXwX",
"wXwXwXwXwXwXwXwXwXwXwXwXwXwXwXwXwXwX` 5.wXwXwXwXwXx x z L T ( { @.o.[ I ^ O.wXwXO.wXwXwXwXwXwXwXwXwX",
"wXwXwXwXwXwXwXwXwXwXwXwXwXwXwXwXwXx ! ..wXwXwXwXwXwXj f l L Y ] o.+.+.{ Y / O.wX4.O.wXwXwXwXwXwXwXwX",
"wXwXwXwXwXwXwXwXwXwXwXwXwXwXwXwXwXx x / &.wXwXwXwXwXh f P +.O. .[ O.4.3.{ ( [ &.7.4.wXwXwXwXwXwXwXwX",
"wXwXwXwXwXwXwXwXwXwXwXwXwXwXwXwXwXx x x / &.wXwXwXwXc f ( i.z.#.O.@.4.0.6.o.)  .7.7.O.wXwXwXwXwXwXwX",
"wXwXwXwXwXwXwXwXwXwXwXwXwXwXwXwXwXx x x P ` &.wXwXwXwXj P G.S.x.-.@.3.0.0.7.@.[ O.w.4.wXwXwXwXwXwXwX",
"wXwXwXwXwXwXwXwXwXwXwXwXwXwXwXwXwXx x x P Q ) O.wXwXwXc P i.{.{.j.R o.0.w.e.0.+...4.6.O.wXwXwXwXwXwX",
"wXwXwXwXwXwXwXwXwXwXwXwXwXwXwXwXwXx x P I P I / ` wXwXx L <.J.{.V.E o.0.e.u.r.0.@.O.7.+.wXwXwXwXwXwX",
"wXwXwXwXwXwXwXwXwXwXwXwXwXwXwXwXwXwXx P Y Y I P P P z z z } z.>.#.+.6.w.e.u.u.r.6.o.4.&.wXwXwXwXwXwX",
"wXwXwXwXwXwXwXwXwXwXwXwXwXwXwXwXwXwXx P Y ( ( Y P L L I L Y Y [ o.3.7.7.7.w.u.u.e.4.4.4.wXwXwXwXwXwX",
"wXwXwXwXwXwXwXwXwXwXwXwXwXwXwXwXwXwXx z Y ] ] ] ^ ^ T T T ] [ o.+.6.6.+.$.7.e.u.r.0.4.5.O.wXwXwXwXwX",
"wXwXwXwXwXwXwXwXwXwXwXwXwXwXwXwXwXwXwXP I ( { o.{ { { { { { o.3.3.0.$.U.:Xc.7.u.u.r.0.8.@.wXwXwXwXwX",
"wXwXwXwXwXwXwXwXwXwXwXwXwXwXwXwXwXwXwXz I ( { @.3.3.3.3.3.3.3.6.0.0.H.6X7X*Xc.7.u.u.w.H.c.wXwXwXwXwX",
"wXwXwXwXwXwXwXwXwXwXwXwXwXwXwXwXwXwXwXwXI ( { @.3.3.6.6.6.6.0.0.e.q.XX0XL.L.;Xc.7.r.7.[.oXwXwXwXwXwX",
"wXwXwXwXwXwXwXwXwXwXwXwXwXwXwXwXwX....wXI ^ ] @.6.6.0.0.q.e.e.e.u.y.2X9XZ * qX5XM.%.l !.@XwXwXwXwXwX",
"wXwXwXwXwXwXwXwXwXwXwXwXwXwXwXwXwX/ ! ! P Y _ { 3.6.0.q.e.e.u.e.u.u.2X0X% % qX0X9XW.  Q.2XwXwXwXwXwX",
"wXwXwXwXwXwXwXwXwXwXwXwXwXwXwXwXwXwXx z z P T [ 3.6.0.e.u.u.u.u.u.u..X0X* * 0X0X0X;XX *X@XwXwXwXwXwX",
"wXwXwXwXwXwXwXwXwXwXwXwXwXwXwXwXwXwX-.P z z L ^ ] 3.6.0.e.u.u.u.u.u.G.0X;X;X0X0X0X0X'.9X[.$ X wXwXwX",
"wXwXwXwXwXwXwXwXwX9X8X8X8X6X3X$X$X#X'.' x x z L T { 3.6.e.u.u.u.u.t.i.1X0X0X0X0X0X0X0X<X$   . wXwXwX",
"wXwXwXwXwXwXqX9X9X8X8X8X8X8X-X-X5X-X!.d.B M M M R U (  .3.6.e.u.9.f.N._.1XqXqX0X1X+Xm.m X wXwXwXwXwX",
"wXwXwXwX9X8X8X9X9X5X=X3XqX0X5X4XqX5X-Xm.j.j.k.J J B R T Y ] 3.6.,.B.{.S.{. X X|.D.V.B N wXwXwXwXwXwX",
"wXwXwXwXwXwXwXwXT.Y.Y.E.8XqX5X-X8X8X=XwXwXwXwXZ.N.h.p.W L I Y { -.B.{.J.D.{.{.{.{.Z.j.N.wXwXwXwXwXwX",
"wXwXwXwXwXwXwXY.$X&X#X#X$XU.a.s.XXXXH.<.wXO.O.O...} R n v v W T ' g.S.{.{.{.{._.D.l.V.wXwXwXwXwXwXwX",
"wXwXwXwXwXwXwX#X$X#X$X-X=X(.c ! _ _  ...........*.#.f.h.j.d.W W M B g.B.C.C.B.v.l.V.wXwXwXwXwXwXwXwX",
"wXwXwXwXwXwX# V A T.#X3X6X7XwXk g g g W W %.$.8.t.n.S.S.S.S.Z.j.;.~ ;.k.g.g.l.v.wXwXwXwXwXwXwXwXwXwX",
"wXwXwXwXwXo O < 2 6 K.Q.3XqXwXwX- < 7 p P.W.:X).$.C.}.}.}.}.}.Z.z.wXwXwXwXwXwXwXwXwXwXwXwXwXwXwXwXwX",
"wXwXwXwXwX# 6 i r 0 5 Q.7XwXwXwX> 8 r t D R.$XW.~ b.{.}.}.}.}.D.i.wXwXwXwXwXwXwXwXwXwXwXwXwXwXwXwXwX",
"wXwXwXwX& P.;X>X^.d < C wXwXwXwXZ `.].K s p I.wXwX-.b.D.S.D.F.i.wXwXwXwXwXwXwXwXwXwXwXwXwXwXwXwXwXwX",
"wXwXwXwX@ a K ].qX7XS wXwXwXwX, C ~.>X0X,XD wXwXwXwXwX1.1.1.<.wXwXwXwXwXwXwXwXwXwXwXwXwXwXwXwXwXwXwX",
"wXwXwXO : w t t d /.W.wXwXwXwX: 1 q u K ,X!.wXwXwXwXwXwXwXwXwXwXwXwXwXwXwXwXwXwXwXwXwXwXwXwXwXwXwXwX",
"wXwXwX+ 7 t t t t e 5 wXwXwXwX: 7 r t y d P.wXwXwXwXwXwXwXwXwXwXwXwXwXwXwXwXwXwXwXwXwXwXwXwXwXwXwXwX",
"wXwXO : w t t d u 9 wXwXwXwXwX< 0 u ^.H 2 wXwXwXwXwXwXwXwXwXwXwXwXwXwXwXwXwXwXwXwXwXwXwXwXwXwXwXwXwX",
"wXwX+ 1 r t F >Xs 7 wXwXwXwXwX2 w G ~.4 wXwXwXwXwXwXwXwXwXwXwXwXwXwXwXwXwXwXwXwXwXwXwXwXwXwXwXwXwXwX",
"wXwX+ 2 r u >X/.q wXwXwXwXwX1 1 7 4 1 wXwXwXwXwXwXwXwXwXwXwXwXwXwXwXwXwXwXwXwXwXwXwXwXwXwXwXwXwXwXwX",
"wXwX; 1 r u F i 9 wXwXwXwXwX2 : : < wXwXwXwXwXwXwXwXwXwXwXwXwXwXwXwXwXwXwXwXwXwXwXwXwXwXwXwXwXwXwXwX",
"wXwX- < q w q 0 wXwXwXwXwXwXwXwXwXwXwXwXwXwXwXwXwXwXwXwXwXwXwXwXwXwXwXwXwXwXwXwXwXwXwXwXwXwXwXwXwXwX",
"wXwX: : 2 7 wXwXwXwXwXwXwXwXwXwXwXwXwXwXwXwXwXwXwXwXwXwXwXwXwXwXwXwXwXwXwXwXwXwXwXwXwXwXwXwXwXwXwXwX",
"wXwXwX2 wXwXwXwXwXwXwXwXwXwXwXwXwXwXwXwXwXwXwXwXwXwXwXwXwXwXwXwXwXwXwXwXwXwXwXwXwXwXwXwXwXwXwXwXwXwX",
"wXwXwXwXwXwXwXwXwXwXwXwXwXwXwXwXwXwXwXwXwXwXwXwXwXwXwXwXwXwXwXwXwXwXwXwXwXwXwXwXwXwXwXwXwXwXwXwXwXwX",
"wXwXwXwXwXwXwXwXwXwXwXwXwXwXwXwXwXwXwXwXwXwXwXwXwXwXwXwXwXwXwXwXwXwXwXwXwXwXwXwXwXwXwXwXwXwXwXwXwXwX",
"wXwXwXwXwXwXwXwXwXwXwXwXwXwXwXwXwXwXwXwXwXwXwXwXwXwXwXwXwXwXwXwXwXwXwXwXwXwXwXwXwXwXwXwXwXwXwXwXwXwX"
};
