/* XPM */
static char *bf77bf0596244af3e2ecafb98065cacd1llL3x8bpTsp5k7R[] = {
/* columns rows colors chars-per-pixel */
"50 50 218 2 ",
"   c #2B0D02",
".  c #260A01",
"X  c #2D150A",
"o  c #331B0D",
"O  c #3B1B0B",
"+  c #3A1805",
"@  c #2B1412",
"#  c #2D1E1B",
"$  c #2E1C13",
"%  c #351C14",
"&  c #3B1D13",
"*  c #331B19",
"=  c #3B1D1B",
"-  c #301712",
";  c #2C241D",
":  c #2B2117",
">  c #342115",
",  c #3A2215",
"<  c #35221B",
"1  c #3B241B",
"2  c #352A1C",
"3  c #3D2A1D",
"4  c #3C1C21",
"5  c #2E2420",
"6  c #2D2B2B",
"7  c #332422",
"8  c #3B2622",
"9  c #352C25",
"0  c #3C2B23",
"q  c #352C2A",
"w  c #3C2E2B",
"e  c #34312C",
"r  c #3D322C",
"t  c #39392F",
"y  c #353233",
"u  c #3C3534",
"i  c #3D3A35",
"p  c #36363C",
"a  c #3C363B",
"s  c #343A3B",
"d  c #3D3B3B",
"f  c #29332B",
"g  c #431F0F",
"h  c #421C16",
"j  c #411E18",
"k  c #4A2915",
"l  c #42251B",
"z  c #432B1E",
"x  c #4A2B1D",
"c  c #462619",
"v  c #412621",
"b  c #432C23",
"n  c #4B2C24",
"m  c #422E29",
"M  c #4B2D29",
"N  c #4B2729",
"B  c #512F29",
"V  c #443225",
"C  c #4B3225",
"Z  c #44342C",
"A  c #4B342C",
"S  c #46392C",
"D  c #4C392E",
"F  c #533424",
"G  c #53352C",
"H  c #59362C",
"J  c #533A2D",
"K  c #5B3C2C",
"L  c #5C3926",
"P  c #492E31",
"I  c #443533",
"U  c #4B3532",
"Y  c #443B34",
"T  c #4C3B34",
"R  c #44363A",
"E  c #4B353B",
"W  c #443C3B",
"Q  c #4B3C3B",
"!  c #523633",
"~  c #533C33",
"^  c #5A3D34",
"/  c #533E3A",
"(  c #5A3E39",
")  c #523539",
"_  c #613C2F",
"`  c #623E35",
"'  c #3E413A",
"]  c #4D402F",
"[  c #4C4135",
"{  c #45423D",
"}  c #4C423C",
"|  c #4C483F",
" . c #444037",
".. c #554236",
"X. c #5B4235",
"o. c #54433C",
"O. c #5B443C",
"+. c #5D493D",
"@. c #504A3E",
"#. c #64422C",
"$. c #6A442D",
"%. c #634534",
"&. c #62453C",
"*. c #644A3D",
"=. c #6A4B3B",
"-. c #684834",
";. c #734D38",
":. c #75533A",
">. c #3C3D41",
",. c #433D42",
"<. c #4B3E41",
"1. c #563C42",
"2. c #3A4144",
"3. c #3D424A",
"4. c #444243",
"5. c #4C4443",
"6. c #444A42",
"7. c #4C4945",
"8. c #464549",
"9. c #4C454A",
"0. c #4C4B4D",
"q. c #464A4B",
"w. c #534443",
"e. c #5B4543",
"r. c #544A43",
"t. c #5B4B44",
"y. c #544749",
"u. c #5B4648",
"i. c #544C4A",
"p. c #5C4C4A",
"a. c #55514E",
"s. c #5D524D",
"d. c #5B5649",
"f. c #4D4D54",
"g. c #484A55",
"h. c #544D52",
"j. c #5D4F54",
"k. c #4E5254",
"l. c #545254",
"z. c #5C5354",
"x. c #5D5B54",
"c. c #55555A",
"v. c #5B565B",
"b. c #5C5B5C",
"n. c #55595D",
"m. c #624442",
"M. c #624C44",
"N. c #6B4C43",
"B. c #644D4B",
"V. c #6A4F4A",
"C. c #6D4744",
"Z. c #724D45",
"A. c #744E4B",
"S. c #645145",
"D. c #6C5144",
"F. c #64534B",
"G. c #6B544A",
"H. c #6D594D",
"J. c #61584F",
"K. c #72534C",
"L. c #72594C",
"P. c #785646",
"I. c #614C50",
"U. c #6A4D52",
"Y. c #635453",
"T. c #6A5651",
"R. c #645A54",
"E. c #6B5B54",
"W. c #62555A",
"Q. c #6B565A",
"!. c #635C5D",
"~. c #6A5B5A",
"^. c #735C54",
"/. c #795E53",
"(. c #725C5A",
"). c #715551",
"_. c #66615E",
"`. c #6C615C",
"'. c #7C6254",
"]. c #72625C",
"[. c #7B655A",
"{. c #756555",
"}. c #5D5E64",
"|. c #655D62",
" X c #695E63",
".X c #626164",
"XX c #6C6565",
"oX c #6C6B6C",
"OX c #6C6960",
"+X c #716363",
"@X c #736C65",
"#X c #7C6A64",
"$X c #746C6A",
"%X c #7E7169",
"&X c #6B6F70",
"*X c #6F727B",
"=X c #767274",
"-X c #7C7472",
";X c #825E4E",
":X c #825C54",
">X c #826451",
",X c #83665C",
"<X c #896959",
"1X c #906E5E",
"2X c #927159",
"3X c #896E62",
"4X c #8D6E6B",
"5X c #8A766B",
"6X c #8C7566",
"7X c #927C6F",
"8X c #837573",
"9X c #8A7B75",
"0X c #9E7D78",
"qX c #9E8379",
"wX c #A5897B",
"eX c #767A85",
"rX c #908684",
"tX c #84868D",
/* pixels */
"J ! G.Q E W <.R R Y t.V =.>X;.  ] J.S...G.0 ].~ I 5.{ y v.tXeX3.4.Y i S Y [ D V D +.| r Y p p 4.d Y ",
"H J )./ Q Q 4.R 4.w.Q b J %.2XP.$ : o.S.D +.E.D T S I 9.c.}.*XtX4.W u S D D A V T S.o.r 4.i.{ u 4.W ",
"M n V./ Q E Q a Y } w D ..k 2X<X..D 0 > , {.J H...V } @X-X!.}.=Xa E o.t.t.J 3 o G.B.+.w.z.j.,.R d a ",
"H G ).O.w.w.w.5.Q Y V ..#.k :.-.M.S.D D H.7X% J +.O.S.#X8X+XY.z.y.Q Z 8 8 V G J 3XM.O.E.+X<.R j.7.4.",
"J F N.! U m u u w.I / C L F #.#.J D t.[.[.[...X , J G.[.].F.o.Y R m 8 4 v G ` -.,X&.O.(.Q.Z ,.|.v.7.",
"B x *.A b < 5 # Z w +.V x F #.#.! t.B.M.S.S +.~ z 3 V D T V 0 0 8 I 1.B.C.&.! n C.&.m.t.E E y.v.l.5.",
"F x Z.*.O.Q E E r m ] F F k $.#.V s.r.} F.V Z ..G.+.b % $ 3 U +.I.B.u.e.( ! J G N.&.( ) m <.j.y.5.Y ",
"O O *.M.G.p.s.s.Y.o.3 V F O ;._ t.q Y 5.r E p.w 0 `.9X#XB.t.M.t.u.t.u.o.( D D F /./ U o.E 9.y.5.9 < ",
"P.=.=.^ e.~.s.i.p.p.t...x   $.%.Y a b.v.y R Q u a.`.R.].o.p.F.t.s.} I T Q D S J G.S.O.| W i y q 0 V ",
"1X=.J C o.F.} Q w.Q / M.D.%.<XN.p.l.=X$Xc.l.9.a } w.5.`.t.o.o.o.W Q W Y S V V 0 +.T 0 9 q 6 6 e o.X.",
">X%.K A Z I w W W I I / N.D.;X&.w.7.v.l.z.XX.XXXW 7.W p.o.Q S r 6 i  .I T @...V @.V : ; e y y i D D ",
"=.X.O.o.Q 5.W 5.R R I A A G %.H t.5.Q q u 8.5.z.XX-XR.r.t.T.H.[ r.r.{ Y T ] V o S.[ r } r.q.4.9.D D ",
"=.X...[ F.$Xz.W d <.Q T M ! H &.+.+.t.} r.} r Y $X8Xs.D o.*.S.D 5.Y u Z w 1 3 z H.t.t.T.XXz.7.4.} ~ ",
"*.+.+.r } !.h.>.,.,.,.Q Q O.n %.G x X.......T Q G.S.A S H.J F D * 7 0 m 3 < G L.D J o.T.+X Xi.<.R I ",
"..X.S.Z q W ,.8.,.>.R E U ! - ^ -.k x c , z 3 , < > . O -.O + O E w.w.( b b J N.1 M ~ t.Y.Q.z.9.,.W ",
"*.X.+.[ Y { y W >.R ,.1.m m - K.1XK X.K C X.X.A D +.....6XD.=.X.B.I.p./ / M.M.^ M ( ( O.u.Y.p.E R E ",
"^ M.H.S.@.|  . .W p.t.0 < / F.t.V T U U / / ~ Q ..T t.G.5XT S.Y h.>.,.h.j.i.r.T ).M.M ).! U t.T D D ",
"n n V ] [ +.@.d.t.A < 8 U e.o.T Q } } E I Y Q Q } Z 8 T F.o.t.r j.<.,.}.oXh.Y ~ U m.= n 1 3 < > , c ",
"Z.G , 2 3 2 2 2 0 , l ~ M.~ D Y Y E Q W I w I U I e.Z Q A / +.Q a 9.W p l.r.u [ ! (.! M ! Q r Z b x ",
"=.B , 2 3 2 2 3 3 D ( ^ G A D ..o.} 5.w.r.w.Q [ 0 o.o.O.m Z U / XX XR.z.Y.{ e T U G.m...o.t.} o.F.F.",
"H n x C D S ] *.6X/.%.J ^ *.%...Y r e Y } Q Q Q / I / ) O.~ ) o.8Xu.|.rX$Xr.r.s.A M V.B./ I 5.} V C ",
"H H ( ..] V S ..G.C & n J b , 2 r 5 : 9 u Z S Q o.V U M ~ ! ( V.1.w y.Y. .R.9XT.! w T.Q.Q R 4.i Q Q ",
"G U T T  . .[ [ ! U ^ V.G...S [ { Y Y | w.} o.t.U b b v = ^ M ( ( e.s.r ; J.5X} m m B.E 1.5.,.u W [ ",
"/ U Y r Y }  .S Q M.V.O.o.+.o.Y Y { a.R.s.o.} t.T.e.N A N 4X( ! ~ T Q t.t.@.Y Z 8 E u.8 v..X0.0.W Y ",
"<.R j.=XoX0.i.OXI.u.* u.p.} Y  .Y 9  .R.`.r.o.T.E.M.( ( C ! ` = 8 - < 8 2 5 w 3 @ U u.Q. Xl.l.l.W W ",
"a }.oX}.q.q.l.z.i.R q 1.w.W i Y { | Y I S o.T.(.G.M.K.(   ( 0Xm.( A U U S Y o.Y F.Q.u.I. Xz.0.p W W ",
"a }.}.c.n.&X.Xd ,.7 Q u.i.5.{  . .| } Y [ t.F.F.m t.b b D.&.n l ..U Z I I [ Q Z (.(.e.u.W.z.0.s W W ",
",.,.,.f..XoXb.W y.4 B.e.} Y 5.@.2 < V T { Z b Z ! A b ( &.! C.V.e.U Q o.@.r.o.S U B.u.u.i.9.q.d d W ",
"4.d d W ' d 5.Y.m @ B.e.] 0 0 : Z w V Z A V w Z % U A ( M.&.X.v ( U w.t.s.R.s.V 3 e.e.1.w.R 4.i W W ",
"I Q { u d } w.+.N & M j o > ] @.o.r.o.T U o./ A ^.3Xz b [.V.b ! I I E 5.a.R.r.w m e./ U Q Q 9.W W W ",
"I Y [ | t.J...b . x %.P.*.X.] S ~ ~ ~ U U U D A D % D [.M., V A U E } 5.r.s.d.T 8 O.) U Q Q 0.5.W W ",
"T Q o.@.T 3 1 l Z.<X_ #.x C =.].].1.I Q o.A / T.T.T.D D ..Z Z ~ E R R u Y r.i.U # e.e.U Y Z { { Y W ",
"U / Q m l , l K =.>XO =.*...] J.l.9.,.,.<.<.`.9X`.].t.Y I } T I E E <.R W { R u 9 U B./ [ 9 r.' Y Y ",
"0 Z b % % C X.K x >XC D V ....| h.8.>.y R <.5.} p.s.r.Y W { Y u ) 1.1.,.W W d W W Q 8 / T F.d.] T D ",
"3 % b ~ ~ M.=.D +.6XM.z > > V 2 # W a.r.w.Y.~.~.r.s.5.u p ,.8.8.R W R a u p  .5.I./ * U D M...0 > % ",
"qXM.~ B./ V T U b r.S.t.G.V S A 3 3 > 2 Q (.#XE.Y y.5.d >.>.p >.,.R R d { 6.i.s.(.~ N ! ^ , C V ..X.",
"qXM.&.E.+.I w.i.z.Y r 8 o.0 H.7XD.X.z o > V O.F.T i.R.b.}.g.3.3.4.i i ' ' '  .} U.M B C.A.h ^ =.>X,X",
"J B O.T.R.R.W.h.5.W 7.Y t.D ..X.*.'.3XP.x o x M.r.F.z.l.c.f.g.n.0.5.6.6.{ t e S M.N h :XA.&.` A.C C ",
"%.%.&.e.u.z.l.c.>.p 4.u S ] +.X.J *.L.H.S.*.D > D U I w a a ,.h.z.x.`.`.x.| [ +.^ N h C.C.C.O.^ X.~ ",
"_ L ( ^.#Xb.l.}.8.>.4.4.S D ] *.A d.S.....S.+.b b D Q o.u.} I E w Q Y.`.d.S Y +.l l n G M./ F.M T T ",
"L F X.B.Y.z.k.>.>.>.d d I V +.E.7.a. .q T o.+.H.X > z n A G ! ! / 1.e./ Q V V 3 o l O.X.B.S Y e W W ",
"F F ^ M.~.v.f.8.>.>.>.d u Y +.R.' 3.8.Y  .r.t.G.D.x   O x x c c = 4 = * > < , % G C G ~ J.J.d.| { W ",
"_ *.X.O.Y.u.W 8.}.v.q.W Y Y Y [ s 3.l.c.i.a.F.M.H.qXwXP.g + g h N P U P D ! ~ J /.K.*.t.d.x.6.f 2.W ",
"x *.J b o.w.} z.c.f.W a 5.s.a.W ' 2.n..Xk.r.d...z %.*.H -.1X:XB C.U.U.M.+.O.X...J V.G.F.| x.3.s d 2.",
"n L.M., 8 b 0 r } } W I W 7.7.W 2.s q.l.5. .Q V ..J ~ ^ n l M M.U.Q.Q.u.T V D J = &.V.Q.i..Xk.6.>.d ",
"! [.{.J A C < - Z o.r.5.u e p d ' i { 4.W S V w t.J A D ! ! ( Y.I.W.p.5.t S T D ^ &.e.m.r.z.8.p W W ",
"b ( M.M.N.D.*.K , 8 Z } 4.{ 8.0.' Y Y Y  .V Z ..T ~ U I Q y.w.W 4.4.8.{ | @.[ A G G ) ) I.W.v.y.W E ",
"o.D ~ G.G.F.M.~ V < < Y r.7.d y u [ Y Y [ V V t.U I W Q R y R 9.p ' 7.x.@X@Xs.U ~ U m.1.Q.j.|.|.W W ",
"~ ..E.r.R.~.Y.r.B.B.! 3 8 Z p.5.4.Y Y Q t.z ~ o.T W W ,.,.,.E ,.,.4.!.i.x.i.t.].Z U t.w.E 9.R 5.W W ",
"D ] G.{ y.y.5.R u.M.( O.! w Y 5.9.d W o.M.b ( O.Q E ,.,.,.W ,.W a u y.W w.Y Y r.r Y w.W W } d 4.W W "
};
